<svg width="29" height="28" viewBox="0 0 29 28" fill="none" xmlns="http://www.w3.org/2000/svg">
<path d="M14.5224 0.864014C9.20802 0.864014 4.62812 4.0613 2.64062 8.64119H26.4042C24.4167 4.0613 19.8368 0.864014 14.5224 0.864014Z" fill="#3E4347"/>
<path d="M14.5224 26.7879C19.8368 26.7879 24.4167 23.5906 26.4042 19.0107H2.64062C4.62812 23.5906 9.20802 26.7879 14.5224 26.7879Z" fill="#75A843"/>
<path d="M27.4845 13.8262C27.4845 12.6164 27.3116 11.4498 27.0092 10.3696H2.03582C1.73337 11.4498 1.56055 12.6164 1.56055 13.8262C1.56055 15.0359 1.73337 16.2025 2.03582 17.2827H27.0092C27.3116 16.2025 27.4845 15.0359 27.4845 13.8262Z" fill="#C94747"/>
<path d="M2.29635 18.1465C2.38276 18.449 2.51238 18.7082 2.642 19.0107H26.4056C26.5352 18.7082 26.6648 18.449 26.7512 18.1465C26.8377 17.8441 26.9241 17.5849 27.0105 17.2824H2.03711C2.12352 17.5849 2.20994 17.8441 2.29635 18.1465ZM26.7512 9.50524C26.6648 9.2028 26.5352 8.94356 26.4056 8.64111H2.642C2.51238 8.94356 2.38276 9.2028 2.29635 9.50524C2.20994 9.80769 2.12352 10.0669 2.03711 10.3694H27.0105C26.9241 10.0669 26.8377 9.80769 26.7512 9.50524Z" fill="white"/>
<path d="M9.42578 22.5969L9.72823 22.7697L18.0671 8.33874C18.5424 8.20912 18.8016 7.73385 19.104 7.30178C19.2769 6.99934 20.0114 5.74635 20.3138 4.14771C19.0608 5.22787 18.3695 6.43765 18.1967 6.7833C17.9375 7.25857 17.6782 7.69064 17.8078 8.20912L9.42578 22.5969Z" fill="white"/>
<path d="M19.6224 22.5969L19.32 22.7697L10.9811 8.33874C10.5058 8.20912 10.2466 7.73385 9.94416 7.30178C9.77133 6.99934 9.03682 5.74635 8.73438 4.14771C9.98736 5.22787 10.6787 6.43765 10.8515 6.7833C11.1107 7.25857 11.37 7.69064 11.2404 8.20912L19.6224 22.5969Z" fill="white"/>
<path d="M17.9775 13.8261C17.9775 18.5788 14.521 22.4674 14.521 22.4674C14.521 22.4674 11.0645 18.5788 11.0645 13.8261C11.0645 9.0734 14.521 5.18481 14.521 5.18481C14.521 5.18481 17.9775 9.0734 17.9775 13.8261Z" fill="#C94747"/>
<path d="M11.9733 17.2827C12.7078 16.5482 13.2263 15.2952 13.2263 13.8262C13.2263 12.3571 12.751 11.1041 11.9733 10.3696C11.6709 11.3634 11.498 12.5732 11.498 13.8262C11.498 15.0791 11.6709 16.2889 11.9733 17.2827ZM17.0717 10.3696C16.3372 11.1041 15.8187 12.3571 15.8187 13.8262C15.8187 15.2952 16.294 16.5482 17.0717 17.2827C17.3741 16.2889 17.547 15.0791 17.547 13.8262C17.547 12.5732 17.3741 11.3634 17.0717 10.3696Z" fill="#3E4347"/>
<path d="M14.5214 14.8632C14.9032 14.8632 15.2127 14.399 15.2127 13.8263C15.2127 13.2536 14.9032 12.7893 14.5214 12.7893C14.1396 12.7893 13.8301 13.2536 13.8301 13.8263C13.8301 14.399 14.1396 14.8632 14.5214 14.8632Z" fill="white"/>
<path d="M14.2621 5.4873C14.0029 6.22182 13.8301 7.60442 13.8301 9.11665C13.8301 10.6721 14.0029 12.0115 14.2621 12.746C14.3486 11.6658 14.435 10.4561 14.435 9.11665C14.435 7.82046 14.3918 6.56747 14.2621 5.4873ZM14.7806 5.4873C15.0399 6.22182 15.2127 7.60442 15.2127 9.11665C15.2127 10.6721 15.0399 12.0115 14.7806 12.746C14.6942 11.6658 14.6078 10.4561 14.6078 9.11665C14.6078 7.82046 14.651 6.56747 14.7806 5.4873ZM14.2621 14.8631C14.0029 15.5976 13.8301 16.9802 13.8301 18.4925C13.8301 20.0479 14.0029 21.3873 14.2621 22.1218C14.3486 21.0417 14.435 19.8319 14.435 18.4925C14.435 17.1963 14.3918 15.9433 14.2621 14.8631ZM14.7806 14.8631C15.0399 15.5976 15.2127 16.9802 15.2127 18.4925C15.2127 20.0479 15.0399 21.3873 14.7806 22.1218C14.6942 21.0417 14.6078 19.8319 14.6078 18.4925C14.6078 17.1963 14.651 15.9433 14.7806 14.8631Z" fill="white"/>
</svg>
