<svg width="36" height="36" viewBox="0 0 36 36" fill="none" xmlns="http://www.w3.org/2000/svg">
<path d="M26.6647 4.39063C24.1264 2.82439 21.2099 1.90625 18.0234 1.90625V4.39063H26.6647Z" fill="#ED4C5C"/>
<path d="M18.0234 6.875H29.6892C28.7711 5.95686 27.7449 5.09273 26.6647 4.39062H18.0234V6.875Z" fill="white"/>
<path d="M18.0234 9.35938H31.6875C31.0934 8.44124 30.4453 7.63111 29.7432 6.875H18.0234V9.35938Z" fill="#ED4C5C"/>
<path d="M18.0234 11.8437H32.9837C32.6056 10.9796 32.1736 10.1155 31.6875 9.35938H18.0234V11.8437Z" fill="white"/>
<path d="M18.0234 14.3281H33.7938C33.5778 13.464 33.3077 12.6539 32.9837 11.8438H18.0234V14.3281Z" fill="#ED4C5C"/>
<path d="M18.0234 16.8667H34.1719C34.1179 16.0026 33.9558 15.1924 33.7938 14.3823H18.0234V16.8667Z" fill="white"/>
<path d="M34.1712 16.8667H18.0228V18.1089H1.82031C1.82031 18.541 1.82031 18.919 1.87432 19.3511H34.1712C34.2252 18.919 34.2252 18.541 34.2252 18.1089C34.2252 17.6768 34.2252 17.2448 34.1712 16.8667Z" fill="#ED4C5C"/>
<path d="M2.25306 21.8355H33.7938C34.0098 21.0253 34.1179 20.2152 34.1719 19.3511H1.875C1.92901 20.1612 2.03702 21.0253 2.25306 21.8355Z" fill="white"/>
<path d="M3.06403 24.3198H32.9845C33.3086 23.5097 33.5786 22.6996 33.7947 21.8354H2.25391C2.46994 22.6996 2.73998 23.5097 3.06403 24.3198Z" fill="#ED4C5C"/>
<path d="M4.3587 26.8042H31.6868C32.1729 25.9941 32.605 25.184 32.983 24.3198H3.0625C3.44056 25.184 3.87262 25.9941 4.3587 26.8042Z" fill="white"/>
<path d="M6.30367 29.2886H29.7432C30.4453 28.5325 31.1474 27.6683 31.6875 26.8042H4.35938C4.89946 27.7223 5.60156 28.5325 6.30367 29.2886Z" fill="#ED4C5C"/>
<path d="M9.32719 31.7729H26.7178C27.852 31.0708 28.8241 30.2067 29.7423 29.2886H6.30273C7.22087 30.2607 8.24703 31.0708 9.32719 31.7729Z" fill="white"/>
<path d="M18.0234 34.3113C21.2099 34.3113 24.1804 33.3932 26.7187 31.7729H9.32812C11.8665 33.3932 14.837 34.3113 18.0234 34.3113Z" fill="#ED4C5C"/>
<path d="M9.38145 4.39063C8.24728 5.09273 7.22113 5.95686 6.30299 6.875C5.54688 7.63111 4.89878 8.49524 4.3587 9.35938C3.87262 10.1695 3.38655 10.9796 3.0625 11.8438C2.73845 12.6539 2.46841 13.464 2.25238 14.3281C2.03635 15.1382 1.92833 15.9484 1.87432 16.8125C1.82031 17.2446 1.82031 17.6766 1.82031 18.1087H18.0228V1.90625C14.8363 1.90625 11.9198 2.82439 9.38145 4.39063Z" fill="#428BC1"/>
<path d="M14.2419 2.44653L14.512 3.25666H15.3221L14.674 3.79674L14.89 4.60686L14.2419 4.12079L13.5938 4.60686L13.8099 3.79674L13.1618 3.25666H13.9719L14.2419 2.44653ZM16.4023 5.68702L16.6723 6.49714H17.4824L16.8343 7.03723L17.0504 7.84735L16.4023 7.36128L15.7542 7.84735L15.9702 7.03723L15.3221 6.49714H16.1322L16.4023 5.68702ZM12.0816 5.68702L12.3516 6.49714H13.1618L12.5137 7.03723L12.7297 7.84735L12.0816 7.36128L11.4335 7.84735L11.6495 7.03723L11.0014 6.49714H11.8116L12.0816 5.68702ZM14.2419 8.92751L14.512 9.73763H15.3221L14.674 10.2777L14.89 11.0878L14.2419 10.6018L13.5938 11.0878L13.8099 10.2777L13.1618 9.73763H13.9719L14.2419 8.92751ZM9.92128 8.92751L10.1913 9.73763H11.0014L10.3533 10.2777L10.5694 11.0878L9.92128 10.6018L9.27318 11.0878L9.48922 10.2777L8.84112 9.73763H9.65124L9.92128 8.92751ZM5.60063 8.92751L5.87067 9.73763H6.68079L6.03269 10.2777L6.24873 11.0878L5.60063 10.6018L4.95253 11.0878L5.16856 10.2777L4.52047 9.73763H5.33059L5.60063 8.92751ZM16.4023 12.168L16.6723 12.9781H17.4824L16.8343 13.5182L17.0504 14.3283L16.4023 13.8423L15.7542 14.3283L15.9702 13.5182L15.3221 12.9781H16.1322L16.4023 12.168ZM12.0816 12.168L12.3516 12.9781H13.1618L12.5137 13.5182L12.7297 14.3283L12.0816 13.8423L11.4335 14.3283L11.6495 13.5182L11.0014 12.9781H11.8116L12.0816 12.168ZM7.76095 12.168L8.031 12.9781H8.84112L8.19302 13.5182L8.40905 14.3283L7.76095 13.8423L7.11286 14.3283L7.32889 13.5182L6.68079 12.9781H7.49091L7.76095 12.168ZM14.2419 15.4085L14.512 16.2186H15.3221L14.674 16.7587L14.89 17.5688L14.2419 17.0827L13.5938 17.5688L13.8099 16.7587L13.1618 16.2186H13.9719L14.2419 15.4085ZM9.92128 15.4085L10.1913 16.2186H11.0014L10.3533 16.7587L10.5694 17.5688L9.92128 17.0827L9.27318 17.5688L9.48922 16.7587L8.84112 16.2186H9.65124L9.92128 15.4085ZM5.60063 15.4085L5.87067 16.2186H6.68079L6.03269 16.7587L6.24873 17.5688L5.60063 17.0827L4.95253 17.5688L5.16856 16.7587L4.52047 16.2186H5.33059L5.60063 15.4085ZM7.11286 7.84735L7.76095 7.36128L8.40905 7.84735L8.13901 7.03723L8.78711 6.49714H7.97699L7.76095 5.68702L7.49091 6.49714H6.7348L7.3829 6.98322L7.11286 7.84735ZM2.7922 14.3283L3.4403 13.8423L4.0884 14.3283L3.81836 13.5182L4.46646 12.9781H3.71034L3.4403 12.168L3.17026 12.9781H2.63018C2.63018 13.0321 2.57617 13.0861 2.57617 13.1401L3.00824 13.4642L2.7922 14.3283Z" fill="white"/>
</svg>
