<svg width="29" height="29" viewBox="0 0 29 29" fill="none" xmlns="http://www.w3.org/2000/svg">
<path d="M14.4577 1.8208C8.84083 1.8208 4.0449 5.45015 2.27344 10.4621H26.7283C24.9137 5.45015 20.1177 1.8208 14.4577 1.8208Z" fill="#F2B200"/>
<path d="M14.4577 27.7446C20.1177 27.7446 24.9137 24.1584 26.6851 19.1033H2.27344C4.0449 24.1584 8.84083 27.7446 14.4577 27.7446Z" fill="#83BF4F"/>
<path d="M2.27162 10.4619C1.79635 11.8013 1.53711 13.2703 1.53711 14.7826C1.53711 16.2948 1.79635 17.7638 2.27162 19.1032H26.7265C27.2018 17.7638 27.461 16.2948 27.461 14.7826C27.461 13.2703 27.2018 11.8013 26.7265 10.4619H2.27162Z" fill="white"/>
<path d="M14.4585 18.2392C16.3675 18.2392 17.915 16.6917 17.915 14.7827C17.915 12.8737 16.3675 11.3262 14.4585 11.3262C12.5495 11.3262 11.002 12.8737 11.002 14.7827C11.002 16.6917 12.5495 18.2392 14.4585 18.2392Z" fill="#428BC1"/>
<path d="M14.4581 17.8072C16.1284 17.8072 17.4825 16.4531 17.4825 14.7828C17.4825 13.1124 16.1284 11.7583 14.4581 11.7583C12.7877 11.7583 11.4336 13.1124 11.4336 14.7828C11.4336 16.4531 12.7877 17.8072 14.4581 17.8072Z" fill="white"/>
<path d="M13.3332 12.1904C13.4525 12.1904 13.5493 12.0936 13.5493 11.9743C13.5493 11.855 13.4525 11.7583 13.3332 11.7583C13.2139 11.7583 13.1172 11.855 13.1172 11.9743C13.1172 12.0936 13.2139 12.1904 13.3332 12.1904Z" fill="#428BC1"/>
<path d="M12.6418 12.5793C12.7611 12.5793 12.8578 12.4826 12.8578 12.3632C12.8578 12.2439 12.7611 12.1472 12.6418 12.1472C12.5225 12.1472 12.4258 12.2439 12.4258 12.3632C12.4258 12.4826 12.5225 12.5793 12.6418 12.5793Z" fill="#428BC1"/>
<path d="M12.0793 13.1408C12.1986 13.1408 12.2953 13.0441 12.2953 12.9248C12.2953 12.8055 12.1986 12.7087 12.0793 12.7087C11.96 12.7087 11.8633 12.8055 11.8633 12.9248C11.8633 13.0441 11.96 13.1408 12.0793 13.1408Z" fill="#428BC1"/>
<path d="M11.6926 13.8322C11.8119 13.8322 11.9086 13.7355 11.9086 13.6162C11.9086 13.4969 11.8119 13.4001 11.6926 13.4001C11.5733 13.4001 11.4766 13.4969 11.4766 13.6162C11.4766 13.7355 11.5733 13.8322 11.6926 13.8322Z" fill="#428BC1"/>
<path d="M11.4758 14.6098C11.5951 14.6098 11.6918 14.5131 11.6918 14.3938C11.6918 14.2745 11.5951 14.1777 11.4758 14.1777C11.3565 14.1777 11.2598 14.2745 11.2598 14.3938C11.2598 14.5131 11.3565 14.6098 11.4758 14.6098Z" fill="#428BC1"/>
<path d="M11.4758 15.3876C11.5951 15.3876 11.6918 15.2909 11.6918 15.1716C11.6918 15.0523 11.5951 14.9556 11.4758 14.9556C11.3565 14.9556 11.2598 15.0523 11.2598 15.1716C11.2598 15.2909 11.3565 15.3876 11.4758 15.3876Z" fill="#428BC1"/>
<path d="M11.6926 16.1655C11.8119 16.1655 11.9086 16.0687 11.9086 15.9494C11.9086 15.8301 11.8119 15.7334 11.6926 15.7334C11.5733 15.7334 11.4766 15.8301 11.4766 15.9494C11.4766 16.0687 11.5733 16.1655 11.6926 16.1655Z" fill="#428BC1"/>
<path d="M12.0793 16.8566C12.1986 16.8566 12.2953 16.7599 12.2953 16.6406C12.2953 16.5213 12.1986 16.4246 12.0793 16.4246C11.96 16.4246 11.8633 16.5213 11.8633 16.6406C11.8633 16.7599 11.96 16.8566 12.0793 16.8566Z" fill="#428BC1"/>
<path d="M12.6418 17.4184C12.7611 17.4184 12.8578 17.3217 12.8578 17.2024C12.8578 17.083 12.7611 16.9863 12.6418 16.9863C12.5225 16.9863 12.4258 17.083 12.4258 17.2024C12.4258 17.3217 12.5225 17.4184 12.6418 17.4184Z" fill="#428BC1"/>
<path d="M13.3332 17.8071C13.4525 17.8071 13.5493 17.7103 13.5493 17.591C13.5493 17.4717 13.4525 17.375 13.3332 17.375C13.2139 17.375 13.1172 17.4717 13.1172 17.591C13.1172 17.7103 13.2139 17.8071 13.3332 17.8071Z" fill="#428BC1"/>
<path d="M14.0676 17.9799C14.1869 17.9799 14.2836 17.8832 14.2836 17.7639C14.2836 17.6446 14.1869 17.5479 14.0676 17.5479C13.9483 17.5479 13.8516 17.6446 13.8516 17.7639C13.8516 17.8832 13.9483 17.9799 14.0676 17.9799Z" fill="#428BC1"/>
<path d="M14.6719 17.8071C14.6719 17.6775 14.7583 17.5911 14.8447 17.5479C14.9743 17.5479 15.0607 17.6343 15.1039 17.7207C15.1039 17.8503 15.0175 17.9367 14.9311 17.9799C14.7583 18.0231 14.6719 17.9367 14.6719 17.8071Z" fill="#428BC1"/>
<path d="M15.6242 17.8071C15.7435 17.8071 15.8403 17.7103 15.8403 17.591C15.8403 17.4717 15.7435 17.375 15.6242 17.375C15.5049 17.375 15.4082 17.4717 15.4082 17.591C15.4082 17.7103 15.5049 17.8071 15.6242 17.8071Z" fill="#428BC1"/>
<path d="M16.3137 17.4184C16.433 17.4184 16.5297 17.3217 16.5297 17.2024C16.5297 17.083 16.433 16.9863 16.3137 16.9863C16.1944 16.9863 16.0977 17.083 16.0977 17.2024C16.0977 17.3217 16.1944 17.4184 16.3137 17.4184Z" fill="#428BC1"/>
<path d="M16.8762 16.8566C16.9955 16.8566 17.0922 16.7599 17.0922 16.6406C17.0922 16.5213 16.9955 16.4246 16.8762 16.4246C16.7569 16.4246 16.6602 16.5213 16.6602 16.6406C16.6602 16.7599 16.7569 16.8566 16.8762 16.8566Z" fill="#428BC1"/>
<path d="M17.2649 16.1655C17.3842 16.1655 17.4809 16.0687 17.4809 15.9494C17.4809 15.8301 17.3842 15.7334 17.2649 15.7334C17.1455 15.7334 17.0488 15.8301 17.0488 15.9494C17.0488 16.0687 17.1455 16.1655 17.2649 16.1655Z" fill="#428BC1"/>
<path d="M17.4817 15.3876C17.601 15.3876 17.6977 15.2909 17.6977 15.1716C17.6977 15.0523 17.601 14.9556 17.4817 14.9556C17.3623 14.9556 17.2656 15.0523 17.2656 15.1716C17.2656 15.2909 17.3623 15.3876 17.4817 15.3876Z" fill="#428BC1"/>
<path d="M17.4819 14.6098C17.3523 14.6098 17.2659 14.5234 17.2227 14.437C17.2227 14.3074 17.3091 14.2209 17.3955 14.1777C17.5251 14.1777 17.6115 14.2641 17.6547 14.3506C17.6979 14.4802 17.6115 14.5666 17.4819 14.6098Z" fill="#428BC1"/>
<path d="M17.2649 13.8322C17.3842 13.8322 17.4809 13.7355 17.4809 13.6162C17.4809 13.4969 17.3842 13.4001 17.2649 13.4001C17.1455 13.4001 17.0488 13.4969 17.0488 13.6162C17.0488 13.7355 17.1455 13.8322 17.2649 13.8322Z" fill="#428BC1"/>
<path d="M16.8762 13.1408C16.9955 13.1408 17.0922 13.0441 17.0922 12.9248C17.0922 12.8055 16.9955 12.7087 16.8762 12.7087C16.7569 12.7087 16.6602 12.8055 16.6602 12.9248C16.6602 13.0441 16.7569 13.1408 16.8762 13.1408Z" fill="#428BC1"/>
<path d="M16.3137 12.5793C16.433 12.5793 16.5297 12.4826 16.5297 12.3632C16.5297 12.2439 16.433 12.1472 16.3137 12.1472C16.1944 12.1472 16.0977 12.2439 16.0977 12.3632C16.0977 12.4826 16.1944 12.5793 16.3137 12.5793Z" fill="#428BC1"/>
<path d="M15.8391 12.0607C15.7959 12.1903 15.6662 12.2335 15.5366 12.1903C15.407 12.1471 15.3638 12.0175 15.407 11.8879C15.4502 11.7583 15.5798 11.7151 15.7094 11.7583C15.8391 11.8447 15.8823 11.9743 15.8391 12.0607ZM15.0613 11.8015C15.0613 11.9311 14.9317 12.0175 14.8021 11.9743C14.6725 11.9743 14.5861 11.8447 14.6293 11.7151C14.6293 11.5855 14.7589 11.499 14.8885 11.5422C15.0181 11.5855 15.1046 11.7151 15.0613 11.8015ZM14.2836 11.7583C14.2836 11.8879 14.1972 11.9743 14.1108 12.0175C13.9812 12.0175 13.8948 11.9311 13.8516 11.8447C13.8516 11.7151 13.938 11.6287 14.0244 11.5855C14.154 11.5422 14.2836 11.6287 14.2836 11.7583Z" fill="#428BC1"/>
<path d="M14.4567 15.4307C14.8146 15.4307 15.1048 15.1406 15.1048 14.7826C15.1048 14.4247 14.8146 14.1345 14.4567 14.1345C14.0988 14.1345 13.8086 14.4247 13.8086 14.7826C13.8086 15.1406 14.0988 15.4307 14.4567 15.4307Z" fill="#428BC1"/>
<path d="M14.4574 11.7583L14.371 13.6162L14.4574 14.7828L14.587 13.6162L14.4574 11.7583ZM13.6797 11.8447L14.0685 13.7026L14.4574 14.7828L14.2846 13.6162L13.6797 11.8447Z" fill="#428BC1"/>
<path d="M12.9447 12.1472L13.8089 13.8323L14.457 14.7828L13.9817 13.7027L12.9447 12.1472ZM12.3398 12.6225L13.5928 14.0483L14.457 14.7828L13.7225 13.8755L12.3398 12.6225Z" fill="#428BC1"/>
<path d="M11.8633 13.2705L13.4187 14.3075L14.4557 14.7827L13.5051 14.0914L11.8633 13.2705Z" fill="#428BC1"/>
<path d="M11.5613 14.0051L13.3327 14.5668L14.4561 14.7828L13.3759 14.394L11.5613 14.0051ZM11.4316 14.7828L13.3327 14.8693L14.4561 14.7828L13.3327 14.6964L11.4316 14.7828Z" fill="#428BC1"/>
<path d="M11.5625 15.5604L13.3772 15.1716L14.4573 14.7827L13.334 14.9987L11.5625 15.5604ZM11.8649 16.2949L13.5068 15.474L14.4573 14.7827L13.4204 15.258L11.8649 16.2949Z" fill="#428BC1"/>
<path d="M12.3398 16.8998L13.7225 15.6901L14.457 14.7827L13.5928 15.5172L12.3398 16.8998ZM12.9447 17.4183L13.9817 15.8197L14.457 14.7827L13.8089 15.7333L12.9447 17.4183Z" fill="#428BC1"/>
<path d="M13.6797 17.7208L14.2846 15.9493L14.4574 14.7827L14.0685 15.8629L13.6797 17.7208ZM14.4574 17.8072L14.587 15.9493L14.4574 14.7827L14.371 15.9493L14.4574 17.8072ZM15.2351 17.7208L14.8895 15.8629L14.4574 14.7827L14.6734 15.9493L15.2351 17.7208Z" fill="#428BC1"/>
<path d="M15.9693 17.4183L15.1483 15.7333L14.457 14.7827L14.9755 15.8629L15.9693 17.4183ZM16.6174 16.8998L15.3644 15.5172L14.457 14.7827L15.2347 15.6901L16.6174 16.8998Z" fill="#428BC1"/>
<path d="M17.0926 16.2951L15.5372 15.2581L14.457 14.7828L15.4076 15.4741L17.0926 16.2951ZM17.3951 15.5606L15.6236 14.9989L14.457 14.7828L15.5804 15.1717L17.3951 15.5606ZM17.4815 14.7828L15.6236 14.6532L14.457 14.7828L15.6236 14.8693L17.4815 14.7828ZM17.3951 14.0051L15.5804 14.394L14.457 14.7828L15.6236 14.5668L17.3951 14.0051Z" fill="#428BC1"/>
<path d="M17.0926 13.2704L15.4076 14.0913L14.457 14.7826L15.5372 14.3074L17.0926 13.2704ZM16.6174 12.6655L15.2347 13.8753L14.457 14.7826L15.3644 14.0481L16.6174 12.6655Z" fill="#428BC1"/>
<path d="M15.9693 12.1472L14.9755 13.7459L14.457 14.7828L15.1483 13.8323L15.9693 12.1472Z" fill="#428BC1"/>
<path d="M15.278 11.8447L14.6731 13.6162L14.457 14.7828L14.8891 13.7026L15.278 11.8447Z" fill="#428BC1"/>
</svg>
