<svg width="28" height="29" viewBox="0 0 28 29" fill="none" xmlns="http://www.w3.org/2000/svg">
<g clip-path="url(#clip0_448_1430)">
<path d="M0.994141 14.6523C0.994141 20.3123 4.62349 25.1082 9.63544 26.8797V2.4248C4.62349 4.19627 0.994141 8.9922 0.994141 14.6523ZM26.9181 14.6523C26.9181 8.9922 23.3319 4.19627 18.2767 2.4248V26.8797C23.3319 25.1082 26.9181 20.3123 26.9181 14.6523Z" fill="#83BF4F"/>
<path d="M9.63672 26.8796C10.9761 27.3549 12.4451 27.6141 13.9574 27.6141C15.4696 27.6141 16.9386 27.3549 18.278 26.8796V2.4247C16.9386 1.94942 15.4696 1.69019 13.9574 1.69019C12.4451 1.69019 10.9761 1.94942 9.63672 2.4247V26.8796Z" fill="#F9F9F9"/>
</g>
<defs>
<clipPath id="clip0_448_1430">
<rect width="27.6522" height="27.6522" fill="white" transform="translate(0.130859 0.826172)"/>
</clipPath>
</defs>
</svg>
