<svg width="29" height="29" viewBox="0 0 29 29" fill="none" xmlns="http://www.w3.org/2000/svg">
<path d="M14.7411 1.69019C9.08106 1.69019 4.28514 5.27633 2.51367 10.3315H26.9686C25.1971 5.27633 20.4012 1.69019 14.7411 1.69019Z" fill="#C94747"/>
<path d="M14.7411 27.6142C20.4012 27.6142 25.1971 24.0281 26.9686 18.9729H2.51367C4.28514 24.0281 9.08106 27.6142 14.7411 27.6142Z" fill="#699635"/>
<path d="M2.51381 10.3315C2.03854 11.6709 1.7793 13.14 1.7793 14.6522C1.7793 16.1644 2.03854 17.6334 2.51381 18.9728H26.9687C27.444 17.6334 27.7032 16.1644 27.7032 14.6522C27.7032 13.14 27.444 11.6709 26.9687 10.3315H2.51381Z" fill="#FFCE31"/>
<path d="M14.7406 16.9421L17.4194 18.9728L16.3824 15.6892L19.0612 13.572H15.7775L14.7406 10.3315L13.7468 13.572H10.4199L13.0987 15.6892L12.0618 18.9728L14.7406 16.9421Z" fill="#3E4347"/>
</svg>
