<svg width="29" height="29" viewBox="0 0 29 29" fill="none" xmlns="http://www.w3.org/2000/svg">
<path d="M14.7622 1.8208C10.9169 1.8208 7.46034 3.50586 5.08398 6.14145H24.3973C22.0641 3.50586 18.6076 1.8208 14.7622 1.8208Z" fill="#3E4347"/>
<path d="M24.4409 6.14136H5.08434C4.00418 7.39435 3.09684 8.86337 2.53516 10.462H26.99C26.4284 8.86337 25.521 7.39435 24.4409 6.14136Z" fill="#FFE62E"/>
<path d="M26.9902 10.4619H2.53529C2.06002 11.8013 1.80078 13.2703 1.80078 14.7826H27.7247C27.7247 13.2703 27.4655 11.8013 26.9902 10.4619Z" fill="#ED4C5C"/>
<path d="M27.7247 14.7827H1.80078C1.80078 16.2949 2.06002 17.764 2.53529 19.1034H26.9902C27.4655 17.764 27.7247 16.2949 27.7247 14.7827Z" fill="#3E4347"/>
<path d="M26.99 19.1033H2.53516C3.09684 20.7019 3.96097 22.1709 5.08434 23.4239H24.3977C25.521 22.1709 26.4284 20.7019 26.99 19.1033Z" fill="#FFE62E"/>
<path d="M24.4405 23.4238H5.08398C7.46034 26.0594 10.9169 27.7445 14.7622 27.7445C18.6076 27.7445 22.0641 26.0594 24.4405 23.4238Z" fill="#ED4C5C"/>
<path d="M14.7621 19.1032C17.1483 19.1032 19.0827 17.1688 19.0827 14.7826C19.0827 12.3963 17.1483 10.4619 14.7621 10.4619C12.3758 10.4619 10.4414 12.3963 10.4414 14.7826C10.4414 17.1688 12.3758 19.1032 14.7621 19.1032Z" fill="white"/>
<path d="M14.3309 13.0544C14.8082 13.0544 15.1951 12.6675 15.1951 12.1903C15.1951 11.7131 14.8082 11.3262 14.3309 11.3262C13.8537 11.3262 13.4668 11.7131 13.4668 12.1903C13.4668 12.6675 13.8537 13.0544 14.3309 13.0544Z" fill="#3E4347"/>
<path d="M14.5469 16.0789L14.7629 18.6712H14.9789V16.0789H14.5469Z" fill="#3E4347"/>
<path d="M14.3288 18.4552V18.6712H15.1929V18.2391L14.3288 18.4552ZM16.0138 17.0294C15.5386 16.2948 15.1065 15.6035 14.6312 14.869C14.5016 14.653 14.1128 14.869 14.2424 15.0851C14.6312 15.6899 15.0201 16.2948 15.409 16.9429H13.8535V17.159C14.588 17.159 15.0633 17.375 15.7978 17.375C16.0138 17.375 16.1003 17.2022 16.0138 17.0294Z" fill="#3E4347"/>
<path d="M15.5828 14.826C15.1075 14.6531 14.1138 14.4371 14.7619 12.6224H13.9842C13.9842 12.6224 12.0831 16.3814 15.626 16.3814C16.4037 16.3814 16.7494 17.0295 16.7494 17.8072C16.7062 17.8072 17.6567 15.5605 15.5828 14.826ZM13.6817 16.7271L13.8978 17.5912H14.1138V16.7271H13.6817ZM14.3298 11.7583L12.6016 12.6224H14.3298V11.7583Z" fill="#3E4347"/>
<path d="M16.0586 15.0417V16.4676C16.0586 16.4676 16.7499 16.77 16.4475 17.807L16.9227 18.023C16.9227 18.023 17.7004 15.9491 16.0586 15.0417Z" fill="#ED4C5C"/>
<path d="M14.5449 14.7827C14.5449 14.7827 14.5449 15.9061 15.6251 15.9061C15.6251 15.9061 16.0572 14.7827 14.5449 14.7827Z" fill="#94989B"/>
<path d="M14.0705 15.3443C14.2853 15.3443 14.4594 15.0348 14.4594 14.653C14.4594 14.2712 14.2853 13.9617 14.0705 13.9617C13.8557 13.9617 13.6816 14.2712 13.6816 14.653C13.6816 15.0348 13.8557 15.3443 14.0705 15.3443Z" fill="#94989B"/>
</svg>
