<svg width="33" height="34" viewBox="0 0 33 34" fill="none" xmlns="http://www.w3.org/2000/svg">
<path d="M29.8411 7.60321C29.4091 7.00912 28.977 6.46904 28.4909 5.92896L22.118 10.5737V11.6538H24.2783L29.8411 7.60321ZM9.42604 11.7078L3.70117 7.49519C3.48514 7.76523 3.32311 8.03527 3.10708 8.30531C3.05307 8.35932 3.05307 8.41333 2.99907 8.41333C2.83704 8.68337 2.62101 9.00742 2.45898 9.27746L5.75348 11.7078H9.42604Z" fill="#ED4C5C"/>
<path d="M32.5965 13.8682H19.9586V1.2303C18.9324 1.01427 17.8522 0.90625 16.7181 0.90625C15.5839 0.90625 14.5037 1.01427 13.4776 1.2303V13.8682H0.839674C0.623641 14.8944 0.515625 15.9745 0.515625 17.1087C0.515625 18.2429 0.623641 19.323 0.839674 20.3492H13.4776V32.9871C14.5037 33.2031 15.5839 33.3111 16.7181 33.3111C17.8522 33.3111 18.9324 33.2031 19.9586 32.9871V20.3492H32.5965C32.8125 19.323 32.9205 18.2429 32.9205 17.1087C32.9205 15.9745 32.8125 14.8944 32.5965 13.8682Z" fill="#ED4C5C"/>
</svg>
