<svg width="25" height="24" viewBox="0 0 25 24" fill="none" xmlns="http://www.w3.org/2000/svg">
<path d="M21.0016 5.4C21.0016 6.39411 20.1957 7.2 19.2016 7.2C18.2075 7.2 17.4016 6.39411 17.4016 5.4C17.4016 4.40589 18.2075 3.6 19.2016 3.6C20.1957 3.6 21.0016 4.40589 21.0016 5.4Z" fill="#FFDA44"/>
<path fill-rule="evenodd" clip-rule="evenodd" d="M12.6016 18C15.9153 18 18.6016 15.3137 18.6016 12C18.6016 8.68629 15.9153 6 12.6016 6C9.28785 6 6.60156 8.68629 6.60156 12C6.60156 15.3137 9.28785 18 12.6016 18ZM12.6016 15.6C14.5898 15.6 16.2016 13.9882 16.2016 12C16.2016 10.0118 14.5898 8.4 12.6016 8.4C10.6133 8.4 9.00156 10.0118 9.00156 12C9.00156 13.9882 10.6133 15.6 12.6016 15.6Z" fill="#FFDA44"/>
<path fill-rule="evenodd" clip-rule="evenodd" d="M0.601562 11.52C0.601562 7.48762 0.601562 5.47143 1.38632 3.93127C2.0766 2.5765 3.17806 1.47504 4.53283 0.784753C6.073 0 8.08918 0 12.1216 0H13.0816C17.1139 0 19.1301 0 20.6703 0.784753C22.0251 1.47504 23.1265 2.5765 23.8168 3.93127C24.6016 5.47143 24.6016 7.48762 24.6016 11.52V12.48C24.6016 16.5124 24.6016 18.5286 23.8168 20.0687C23.1265 21.4235 22.0251 22.525 20.6703 23.2152C19.1301 24 17.1139 24 13.0816 24H12.1216C8.08918 24 6.073 24 4.53283 23.2152C3.17806 22.525 2.0766 21.4235 1.38632 20.0687C0.601562 18.5286 0.601562 16.5124 0.601562 12.48V11.52ZM12.1216 2.4H13.0816C15.1374 2.4 16.5349 2.40187 17.6151 2.49012C18.6673 2.57609 19.2054 2.73191 19.5807 2.92317C20.4839 3.38336 21.2182 4.11767 21.6784 5.02085C21.8696 5.3962 22.0255 5.93429 22.1114 6.98649C22.1997 8.06671 22.2016 9.46421 22.2016 11.52V12.48C22.2016 14.5358 22.1997 15.9333 22.1114 17.0135C22.0255 18.0657 21.8696 18.6038 21.6784 18.9792C21.2182 19.8823 20.4839 20.6166 19.5807 21.0768C19.2054 21.2681 18.6673 21.4239 17.6151 21.5099C16.5349 21.5981 15.1374 21.6 13.0816 21.6H12.1216C10.0658 21.6 8.66827 21.5981 7.58805 21.5099C6.53586 21.4239 5.99777 21.2681 5.62241 21.0768C4.71923 20.6166 3.98492 19.8823 3.52473 18.9792C3.33348 18.6038 3.17765 18.0657 3.09169 17.0135C3.00343 15.9333 3.00156 14.5358 3.00156 12.48V11.52C3.00156 9.46421 3.00343 8.06671 3.09169 6.98649C3.17765 5.93429 3.33348 5.3962 3.52473 5.02085C3.98492 4.11767 4.71923 3.38336 5.62241 2.92317C5.99777 2.73191 6.53586 2.57609 7.58805 2.49012C8.66827 2.40187 10.0658 2.4 12.1216 2.4Z" fill="#FFDA44"/>
</svg>
