<svg width="27" height="24" viewBox="0 0 27 24" fill="none" xmlns="http://www.w3.org/2000/svg">
<path d="M7.08996 2.90083C7.08996 4.50291 5.70132 5.80165 3.98834 5.80165C2.27536 5.80165 0.886719 4.50291 0.886719 2.90083C0.886719 1.29874 2.27536 0 3.98834 0C5.70132 0 7.08996 1.29874 7.08996 2.90083Z" fill="#FFDA44"/>
<path d="M1.31087 7.93389H6.61279V24H1.31087V7.93389Z" fill="#FFDA44"/>
<path d="M15.1489 7.93389H9.84696V24H15.1489C15.1489 24 15.1489 18.9422 15.1489 15.7798C15.1489 13.8816 15.797 11.9752 18.383 11.9752C21.3056 11.9752 21.288 14.4592 21.2744 16.3836C21.2566 18.899 21.2991 21.466 21.2991 24H26.601V15.5207C26.5561 10.1064 25.1453 7.61157 20.5038 7.61157C17.7474 7.61157 16.0388 8.86296 15.1489 9.99513V7.93389Z" fill="#FFDA44"/>
</svg>
