<svg width="93" height="93" viewBox="0 0 93 93" fill="none" xmlns="http://www.w3.org/2000/svg">
<path d="M36.1154 20.5613H14.4818C12.9518 20.5613 11.4845 21.1658 10.4026 22.2419C9.32069 23.318 8.71289 24.7775 8.71289 26.2994V49.2518C8.71289 50.7736 9.32069 52.2331 10.4026 53.3092C11.4845 54.3853 12.9518 54.9899 14.4818 54.9899H36.1154V57.8589C36.1154 60.9026 34.8998 63.8216 32.736 65.9738C30.5723 68.126 27.6375 69.3351 24.5775 69.3351C23.8125 69.3351 23.0788 69.6374 22.5379 70.1754C21.9969 70.7135 21.693 71.4432 21.693 72.2042C21.693 72.9651 21.9969 73.6948 22.5379 74.2329C23.0788 74.7709 23.8125 75.0732 24.5775 75.0732C29.1661 75.0685 33.5654 73.2533 36.81 70.026C40.0546 66.7987 41.8796 62.423 41.8843 57.8589V26.2994C41.8843 24.7775 41.2765 23.318 40.1947 22.2419C39.1128 21.1658 37.6454 20.5613 36.1154 20.5613ZM36.1154 49.2518H14.4818V26.2994H36.1154V49.2518ZM77.9403 20.5613H56.3067C54.7767 20.5613 53.3093 21.1658 52.2275 22.2419C51.1456 23.318 50.5378 24.7775 50.5378 26.2994V49.2518C50.5378 50.7736 51.1456 52.2331 52.2275 53.3092C53.3093 54.3853 54.7767 54.9899 56.3067 54.9899H77.9403V57.8589C77.9403 60.9026 76.7247 63.8216 74.5609 65.9738C72.3971 68.126 69.4624 69.3351 66.4024 69.3351C65.6374 69.3351 64.9037 69.6374 64.3627 70.1754C63.8218 70.7135 63.5179 71.4432 63.5179 72.2042C63.5179 72.9651 63.8218 73.6948 64.3627 74.2329C64.9037 74.7709 65.6374 75.0732 66.4024 75.0732C70.991 75.0685 75.3903 73.2533 78.6349 70.026C81.8795 66.7987 83.7045 62.423 83.7092 57.8589V26.2994C83.7092 24.7775 83.1014 23.318 82.0195 22.2419C80.9376 21.1658 79.4703 20.5613 77.9403 20.5613ZM77.9403 49.2518H56.3067V26.2994H77.9403V49.2518Z" fill="#054640"/>
</svg>
