<svg width="30" height="24" viewBox="0 0 30 24" fill="none" xmlns="http://www.w3.org/2000/svg">
<path d="M9.43633 24C6.10891 24 3.00718 23.0182 0.396484 21.3241C2.61305 21.4696 6.52479 21.1212 8.95788 18.7667C5.29771 18.5963 3.64704 15.7485 3.43174 14.5314C3.74273 14.6531 5.22594 14.7992 6.06323 14.4584C1.85284 13.3874 1.20692 9.63895 1.35046 8.49493C2.13991 9.05477 3.47958 9.24949 4.00588 9.20081C0.0825571 6.35294 1.494 2.06897 2.18776 1.14402C5.00327 5.10122 9.22286 7.32373 14.443 7.44735C14.3446 7.00942 14.2926 6.55348 14.2926 6.08519C14.2926 2.72443 16.9703 0 20.2733 0C21.9991 0 23.5542 0.743743 24.6458 1.9334C25.799 1.65924 27.5346 1.01746 28.3831 0.462475C27.9554 2.02028 26.624 3.31982 25.8186 3.80147C25.812 3.78501 25.8252 3.81786 25.8186 3.80147C26.526 3.69291 28.4403 3.31969 29.1965 2.79919C28.8225 3.67435 27.4109 5.12946 26.2524 5.94409C26.468 15.5875 19.1951 24 9.43633 24Z" fill="#FFDA44"/>
</svg>
