<svg width="34" height="24" viewBox="0 0 34 24" fill="none" xmlns="http://www.w3.org/2000/svg">
<path d="M0.580517 4.72933C0.734753 2.3548 2.64385 0.493879 5.02047 0.376135C8.46197 0.205634 13.3809 0 17.0871 0C20.7933 0 25.7122 0.205634 29.1537 0.376135C31.5304 0.493879 33.4395 2.3548 33.5937 4.72933C33.7415 7.00431 33.8871 9.80359 33.8871 12C33.8871 14.1964 33.7415 16.9957 33.5937 19.2707C33.4395 21.6452 31.5304 23.5061 29.1537 23.6239C25.7122 23.7944 20.7933 24 17.0871 24C13.3809 24 8.46197 23.7944 5.02047 23.6239C2.64385 23.5061 0.734753 21.6452 0.580517 19.2707C0.432746 16.9957 0.287109 14.1964 0.287109 12C0.287109 9.80359 0.432746 7.00431 0.580517 4.72933Z" fill="#FFDA44"/>
<path d="M13.4902 7.20312V16.8031L23.0902 12.0031L13.4902 7.20312Z" fill="white"/>
</svg>
